<svg width="42" height="42" viewBox="0 0 42 42" fill="none" xmlns="http://www.w3.org/2000/svg">
<g clip-path="url(#clip0_611_2)">
<mask id="mask0_611_2" style="mask-type:luminance" maskUnits="userSpaceOnUse" x="0" y="0" width="42" height="42">
<path d="M42 0H0V42H42V0Z" fill="white"/>
</mask>
<g mask="url(#mask0_611_2)">
<path fill-rule="evenodd" clip-rule="evenodd" d="M5.49583 12.7461C4.04594 13.4259 2.64238 14.2018 1.29438 15.0686C4.189 26.1708 11.1615 35.7915 20.7206 42.0008C24.8734 39.3316 28.5744 36.0091 31.6825 32.1595C25.866 29.3442 21.0402 24.8092 17.8492 19.1598C14.6582 13.5103 13.2537 7.01523 13.8231 0.541016C8.94041 1.29906 4.21364 2.85633 -0.169922 5.15116C-0.103347 6.84693 0.0542326 8.53787 0.302131 10.2165C3.1019 8.58311 6.08306 7.28775 9.18387 6.3572C10.0803 17.4457 15.8759 27.1352 24.3882 33.2274C23.2303 34.3266 22.0103 35.3575 20.7342 36.3148C13.0841 30.4914 7.66472 22.146 5.49571 12.7456L5.49583 12.7461Z" fill="#4682B4"/>
<path fill-rule="evenodd" clip-rule="evenodd" d="M18.5304 0.0579181C17.1002 12.0077 23.5869 23.4616 34.4668 28.3131C35.3187 26.9985 36.1043 25.6415 36.8205 24.2472C32.9343 22.622 29.5795 19.9302 27.1382 16.4784C24.6968 13.0266 23.2672 8.95365 23.0122 4.72343C27.5514 4.96185 32.0194 5.96103 36.2322 7.67988C33.8508 8.81015 31.5245 9.62317 28.9927 10.3059C31.6613 16.7633 33.9946 16.274 38.8597 19.6646C39.4336 18.1522 39.9292 16.611 40.3447 15.0471C39.0247 14.2054 37.6534 13.4481 36.239 12.7798C37.9889 12.0525 39.6916 11.2146 41.3368 10.2714C41.5967 8.57291 41.7611 6.86111 41.8293 5.14401C34.6376 1.38126 26.618 -0.348534 18.5302 0.0581496L18.5304 0.0579181Z" fill="#4682B4"/>
</g>
</g>
<defs>
<clipPath id="clip0_611_2">
<rect width="42" height="42" fill="white"/>
</clipPath>
</defs>
</svg>
